<svg xmlns="http://www.w3.org/2000/svg" viewBox="0 0 800 800"><defs><style>.cls-1{isolation:isolate;}.cls-2{fill:#ffdc50;}.cls-3{fill:#efcf4b;opacity:0.5;mix-blend-mode:multiply;}.cls-4{fill:#343a41;}.cls-5{fill:#3e454d;}.cls-6{fill:#485059;}.cls-7{fill:#fff;}.cls-8{fill:#e6e6e6;}.cls-9{fill:#ff5349;}.cls-10{fill:#dbdfde;}.cls-11{fill:#e6eae9;}.cls-12{fill:#637285;}.cls-13{fill:#5f6d7f;}.cls-14{fill:#6c7a87;}.cls-15{fill:#2c3a3d;}.cls-16{fill:#ffdb53;}.cls-17{fill:#f0b213;}.cls-18{fill:#fcdc7a;}.cls-19{fill:#faf7c2;}.cls-20{fill:#eceab9;}.cls-21{fill:#f9f6cf;}.cls-22{fill:#333c43;}.cls-23{fill:#fd544d;}.cls-24{fill:#c55251;}.cls-25{fill:#b8ab74;}.cls-26{fill:#ada26e;}.cls-27{fill:#f2efdc;}.cls-28{fill:#dddac9;}.cls-29{fill:#7d5329;}.cls-30{fill:#a87236;}.cls-31{fill:#b57b3a;}</style></defs><g class="cls-1"><g id="BACKGROUND"><rect class="cls-2" width="800" height="800"/></g><g id="OBJECTS"><path class="cls-3" d="M712,567.27H515.62a8.31,8.31,0,0,1-8.3-8.31h0a8.31,8.31,0,0,1,8.3-8.3H712a8.3,8.3,0,0,1,8.3,8.3h0A8.3,8.3,0,0,1,712,567.27Z" transform="translate(0 0)"/><rect class="cls-3" x="144.33" y="204.19" width="213.01" height="16.61" rx="8.31"/><rect class="cls-3" x="588.47" y="370.49" width="43.58" height="16.61" rx="8.31"/><rect class="cls-3" x="166.92" y="627.91" width="43.58" height="16.61" rx="8.31"/><path class="cls-3" d="M148.16,362.35H134.43a8.31,8.31,0,0,1-8.31-8.3h0a8.31,8.31,0,0,1,8.31-8.31h13.73a8.31,8.31,0,0,1,8.31,8.31h0A8.31,8.31,0,0,1,148.16,362.35Z" transform="translate(0 0)"/><path class="cls-3" d="M487,607.66H201.45a8.31,8.31,0,0,1-8.31-8.31h0a8.31,8.31,0,0,1,8.31-8.31H487a8.31,8.31,0,0,1,8.31,8.31h0A8.31,8.31,0,0,1,487,607.66Z" transform="translate(0 0)"/><rect class="cls-3" x="69.77" y="396.51" width="213.01" height="16.61" rx="8.31"/><path class="cls-3" d="M668.9,333.94H383.36a8.3,8.3,0,0,1-8.3-8.31h0a8.3,8.3,0,0,1,8.3-8.3H668.9a8.31,8.31,0,0,1,8.3,8.3h0A8.31,8.31,0,0,1,668.9,333.94Z" transform="translate(0 0)"/><path class="cls-3" d="M741.86,166.22H645.18a8.31,8.31,0,0,1-8.31-8.31h0a8.31,8.31,0,0,1,8.31-8.3h96.68a8.31,8.31,0,0,1,8.3,8.3h0A8.31,8.31,0,0,1,741.86,166.22Z" transform="translate(0 0)"/><path class="cls-3" d="M154.82,276.77H58.14a8.31,8.31,0,0,1-8.3-8.31h0a8.3,8.3,0,0,1,8.3-8.3h96.68a8.3,8.3,0,0,1,8.31,8.3h0A8.31,8.31,0,0,1,154.82,276.77Z" transform="translate(0 0)"/><path class="cls-3" d="M644.26,134.86H633.55a8.3,8.3,0,0,1-8.31-8.3h0a8.31,8.31,0,0,1,8.31-8.31h10.71a8.31,8.31,0,0,1,8.31,8.31h0A8.3,8.3,0,0,1,644.26,134.86Z" transform="translate(0 0)"/><path class="cls-3" d="M620.36,574.62l-95-415.87A10.25,10.25,0,0,0,513.08,151l-2.49.57h-.07l-100,22.85-3-13.07a3.9,3.9,0,0,0-4.69-2.94l-32.11,7.34a4,4,0,0,1-4.56-2.52,26.2,26.2,0,0,0-50.63,11.57,3.94,3.94,0,0,1-3,4.24l-29.73,6.79a3.92,3.92,0,0,0-2.94,4.69l3,13.07L179.28,227.29a9.27,9.27,0,0,0-7,11.09l95.45,417.81a9.26,9.26,0,0,0,11.08,7l331.25-75.67h0l2.55-.58A10.26,10.26,0,0,0,620.36,574.62ZM338.6,159.24a13.54,13.54,0,1,1-10.19,16.22A13.55,13.55,0,0,1,338.6,159.24Z" transform="translate(0 0)"/><rect class="cls-4" x="217.06" y="179.04" width="358.29" height="447.09" rx="10.25" transform="translate(-79.7 98.34) rotate(-12.87)"/><path class="cls-5" d="M519.61,154.59,615.05,572.4a9.25,9.25,0,0,1-7,11.08L276.84,659.15a9.26,9.26,0,0,1-11.08-7L170.31,234.38a9.27,9.27,0,0,1,7-11.09l331.24-75.67a9.26,9.26,0,0,1,11.09,7Z" transform="translate(0 0)"/><path class="cls-6" d="M515.86,149,269.51,657.73a9.21,9.21,0,0,1-3.75-5.54L170.31,234.38a9.27,9.27,0,0,1,7-11.09l331.24-75.67A9.25,9.25,0,0,1,515.86,149Z" transform="translate(0 0)"/><polygon class="cls-7" points="507.54 166.22 591.05 531.79 563.77 575.23 277.82 640.55 186.24 239.62 507.54 166.22"/><polygon class="cls-8" points="591.05 531.79 563.77 575.23 555.69 539.87 591.05 531.79"/><path class="cls-8" d="M233.23,325.63,222.6,279.09l46.54-10.63L279.78,315Zm-1-40.52,7.07,30.94L270.2,309,263.13,278Z" transform="translate(0 0)"/><polygon class="cls-5" points="247.78 311.53 237.82 305.27 240.48 301.04 246.21 304.63 259.65 283.22 263.89 285.88 247.78 311.53"/><rect class="cls-9" x="283.48" y="258.63" width="91.22" height="8.52" transform="translate(-50.28 79.89) rotate(-12.87)"/><rect class="cls-8" x="285.48" y="260.5" width="214.07" height="8.52" transform="translate(-49.1 94.06) rotate(-12.87)"/><rect class="cls-8" x="289.41" y="279.71" width="178.24" height="8.52" transform="translate(-53.73 91.43) rotate(-12.87)"/><path class="cls-8" d="M249.41,396.46l-10.63-46.55,46.54-10.63L296,385.83Zm-1-40.53,7.07,30.95,30.94-7.07-7.06-30.95Z" transform="translate(0 0)"/><polygon class="cls-5" points="263.96 382.35 254 376.1 256.66 371.86 262.38 375.46 275.83 354.05 280.06 356.71 263.96 382.35"/><rect class="cls-9" x="299.65" y="329.46" width="91.22" height="8.52" transform="translate(-65.65 85.27) rotate(-12.87)"/><rect class="cls-8" x="301.66" y="331.33" width="214.07" height="8.52" transform="translate(-64.47 99.44) rotate(-12.87)"/><rect class="cls-8" x="306.98" y="362.83" width="67.84" height="8.52" transform="translate(-73.19 85.14) rotate(-12.87)"/><path class="cls-8" d="M265.59,467.28,255,420.74l46.54-10.63,10.63,46.54Zm-1-40.52,7.07,30.94,30.94-7.07-7.07-30.94Z" transform="translate(0 0)"/><rect class="cls-5" x="269.65" y="436.19" width="27.78" height="5" transform="translate(-238.76 445.42) rotate(-57.86)"/><rect class="cls-5" x="281.05" y="424.8" width="5" height="27.78" transform="translate(-238.76 445.47) rotate(-57.87)"/><rect class="cls-9" x="315.83" y="400.28" width="91.22" height="8.52" transform="translate(-81.01 90.65) rotate(-12.87)"/><rect class="cls-8" x="317.84" y="402.15" width="214.07" height="8.52" transform="translate(-79.84 104.83) rotate(-12.87)"/><rect class="cls-8" x="322.19" y="425.14" width="144.32" height="8.52" transform="translate(-85.72 98.6) rotate(-12.87)"/><path class="cls-8" d="M281.77,538.11l-10.63-46.55,46.54-10.63,10.63,46.54Zm-1-40.53,7.07,30.95,30.94-7.07-7.07-31Z" transform="translate(0 0)"/><rect class="cls-5" x="285.83" y="507.02" width="27.78" height="5" transform="translate(-291.16 492.27) rotate(-57.86)"/><rect class="cls-5" x="297.22" y="495.63" width="5" height="27.78" transform="translate(-291.16 492.33) rotate(-57.87)"/><rect class="cls-9" x="332.01" y="471.11" width="91.22" height="8.52" transform="translate(-96.38 96.03) rotate(-12.87)"/><rect class="cls-8" x="334.02" y="472.97" width="214.07" height="8.52" transform="translate(-95.2 110.21) rotate(-12.87)"/><rect class="cls-8" x="337.67" y="489.73" width="200.32" height="8.52" transform="translate(-99.01 109.91) rotate(-12.87)"/><path class="cls-8" d="M298,608.93l-10.63-46.54,46.54-10.64,10.63,46.55ZM296.9,568.4l7.07,31,30.94-7.07-7.07-30.95Z" transform="translate(0 0)"/><polygon class="cls-5" points="312.49 594.82 302.54 588.57 305.19 584.33 310.92 587.93 324.37 566.52 328.6 569.18 312.49 594.82"/><rect class="cls-9" x="348.19" y="541.93" width="91.22" height="8.52" transform="translate(-111.75 101.42) rotate(-12.87)"/><rect class="cls-8" x="350.2" y="543.8" width="214.07" height="8.52" transform="translate(-110.57 115.59) rotate(-12.87)"/><rect class="cls-8" x="354.13" y="563.01" width="178.24" height="8.52" transform="translate(-115.2 112.96) rotate(-12.87)"/><path class="cls-10" d="M404.37,155.4a3.94,3.94,0,0,0-3.54-.94l-32.11,7.34a4,4,0,0,1-4.56-2.52,26.2,26.2,0,0,0-50.63,11.57,3.94,3.94,0,0,1-3,4.24l-29.73,6.79a3.92,3.92,0,0,0-2.94,4.69l7.49,32.8a23.9,23.9,0,0,0,28.58,17.95l81.15-18.54A23.86,23.86,0,0,0,413,190.2l-7.49-32.8A4,4,0,0,0,404.37,155.4Zm-67.77-.16a13.54,13.54,0,1,1-10.19,16.22A13.55,13.55,0,0,1,336.6,155.24Z" transform="translate(0 0)"/><path class="cls-11" d="M400.83,154.46l-32.11,7.34a4,4,0,0,1-4.56-2.52,26.2,26.2,0,0,0-50.63,11.57,3.94,3.94,0,0,1-3,4.24l-29.73,6.79a3.92,3.92,0,0,0-2.94,4.69l7.49,32.8a23.66,23.66,0,0,0,9.11,13.88L404.37,155.4A3.94,3.94,0,0,0,400.83,154.46Zm-58.2,27.19a13.54,13.54,0,1,1,10.2-16.22A13.54,13.54,0,0,1,342.63,181.65Z" transform="translate(0 0)"/><path class="cls-3" d="M306.21,418.24h0L278,436.91,108.4,635.61,96.77,649.24a13.83,13.83,0,0,0,1.54,19.5l1.63,1.39a13.83,13.83,0,0,0,19.5-1.54l12.64-14.81,6.91-8.1-.82-1.15L299.85,455.11l14.84-29.64,8.37-18.39Z" transform="translate(0 0)"/><polygon class="cls-12" points="121.14 660.76 299.34 451.99 313.36 421.2 321.73 402.81 276.67 432.64 98.47 641.41 121.14 660.76"/><rect class="cls-13" x="69.45" y="548.68" width="274.48" height="9.33" transform="translate(-348.37 351.31) rotate(-49.52)"/><rect class="cls-14" x="53.88" y="535.39" width="274.48" height="9.33" transform="translate(-343.72 334.8) rotate(-49.52)"/><path class="cls-15" d="M93.69,635.85H123.5a0,0,0,0,1,0,0v19.48a13.83,13.83,0,0,1-13.83,13.83h-2.14a13.83,13.83,0,0,1-13.83-13.83V635.85A0,0,0,0,1,93.69,635.85Z" transform="translate(449.62 85.71) rotate(40.48)"/><rect class="cls-16" x="107.96" y="630.46" width="29.81" height="10.65" transform="matrix(0.76, 0.65, -0.65, 0.76, 442.18, 72.44)"/><rect class="cls-17" x="125.99" y="637.11" width="9.33" height="10.65" transform="translate(448.36 68.98) rotate(40.48)"/><rect class="cls-18" x="110.41" y="623.81" width="9.33" height="10.65" transform="translate(436 75.9) rotate(40.48)"/><polygon class="cls-19" points="299.34 451.99 321.73 402.81 276.67 432.64 299.34 451.99"/><polygon class="cls-20" points="299.34 451.99 313.36 421.2 292.25 445.93 299.34 451.99"/><polygon class="cls-21" points="276.67 432.64 304.88 413.97 283.77 438.7 276.67 432.64"/><polygon class="cls-22" points="313.36 421.2 321.73 402.81 304.88 413.97 313.36 421.2"/><polygon class="cls-3" points="707.88 466.26 707.88 466.26 701.26 418.2 701.26 418.2 701.26 418.2 679.78 421.16 679.78 421.16 607.9 431.06 614.52 479.12 614.53 479.12 614.53 479.13 686.41 469.23 707.88 466.27 707.88 466.26"/><rect class="cls-23" x="609.77" y="420.4" width="94.24" height="48.52" transform="matrix(0.99, -0.14, 0.14, 0.99, -54.53, 93.8)"/><rect class="cls-19" x="681.16" y="415.51" width="21.68" height="36.35" transform="matrix(0.99, -0.14, 0.14, 0.99, -52.71, 98.49)"/><rect class="cls-20" x="684.47" y="451.63" width="21.68" height="12.18" transform="translate(-55.96 99.16) rotate(-7.84)"/><rect class="cls-24" x="612.36" y="458.06" width="72.56" height="12.18" transform="translate(-57.27 92.85) rotate(-7.84)"/><path class="cls-3" d="M641.34,267.43a76,76,0,1,0-20.49,12l4.86,11.26a10.32,10.32,0,0,0,14.63,4.85l5.29-3.05a10.32,10.32,0,0,0,3.13-15.09Z" transform="translate(0 0)"/><path class="cls-25" d="M666.15,202.64a76.08,76.08,0,1,1-23.1-54.6A76.08,76.08,0,0,1,666.15,202.64Z" transform="translate(0 0)"/><path class="cls-26" d="M666.15,202.64a76.1,76.1,0,0,1-124.22,58.92L643.05,148A75.89,75.89,0,0,1,666.15,202.64Z" transform="translate(0 0)"/><path class="cls-27" d="M645.76,271.43,630,250.14a10.31,10.31,0,0,0-13.44-2.79h0a10.31,10.31,0,0,0-4.32,13l10.51,24.34a10.32,10.32,0,0,0,14.63,4.85l5.29-3.05A10.32,10.32,0,0,0,645.76,271.43Z" transform="translate(0 0)"/><circle class="cls-27" cx="589.72" cy="202.42" r="62.3" transform="translate(-30.97 143.36) rotate(-13.51)"/><circle class="cls-28" cx="589.72" cy="202.42" r="54.13" transform="translate(29.59 476.28) rotate(-45)"/><circle class="cls-29" cx="589.72" cy="202.42" r="49.06" transform="translate(-30.7 264.28) rotate(-24.64)"/><circle class="cls-30" cx="582.69" cy="200.54" r="41.79" transform="translate(-31.54 150.86) rotate(-14.37)"/><circle class="cls-31" cx="589.72" cy="202.42" r="23.49" transform="translate(190 680.93) rotate(-69.07)"/></g></g></svg>