<svg xmlns="http://www.w3.org/2000/svg" xmlns:xlink="http://www.w3.org/1999/xlink" viewBox="0 0 500 500"><defs><style>.cls-1{isolation:isolate;}.cls-12,.cls-2{fill:#fff;}.cls-3{fill:none;stroke:#000;stroke-miterlimit:10;}.cls-4{fill:url(#linear-gradient);}.cls-5{fill:url(#linear-gradient-2);}.cls-6{fill:url(#linear-gradient-3);}.cls-7{fill:url(#linear-gradient-4);}.cls-8{fill:url(#linear-gradient-5);}.cls-9{opacity:0.6;mix-blend-mode:multiply;fill:url(#linear-gradient-6);}.cls-10{fill:url(#linear-gradient-7);}.cls-11{fill:url(#linear-gradient-8);}.cls-12{font-size:19.43px;}.cls-12,.cls-13{font-family:Montserrat-Bold, Montserrat Bold;font-weight:700;}.cls-13{font-size:28.32px;}.cls-13,.cls-14{fill:#373f54;}.cls-14{font-size:14.13px;font-family:Montserrat-Light, Montserrat Light;font-weight:300;}.cls-15{letter-spacing:0.01em;}</style><linearGradient id="linear-gradient" x1="189.73" y1="230.56" x2="104.88" y2="145.71" gradientUnits="userSpaceOnUse"><stop offset="0" stop-color="#4638a3"/><stop offset="1" stop-color="#7c6fcf"/></linearGradient><linearGradient id="linear-gradient-2" x1="170.75" y1="232.03" x2="88.26" y2="314.52" gradientUnits="userSpaceOnUse"><stop offset="0" stop-color="#4c7f98"/><stop offset="1" stop-color="#77c8c3"/></linearGradient><linearGradient id="linear-gradient-3" x1="270.3" y1="274.33" x2="270.3" y2="482.4" gradientUnits="userSpaceOnUse"><stop offset="0" stop-color="#ecb62b"/><stop offset="1" stop-color="#f5de57"/></linearGradient><linearGradient id="linear-gradient-4" x1="263.86" y1="193.91" x2="302.96" y2="29.47" gradientUnits="userSpaceOnUse"><stop offset="0" stop-color="#a03b7c"/><stop offset="1" stop-color="#d97196"/></linearGradient><linearGradient id="linear-gradient-5" x1="301.91" y1="257.32" x2="440.35" y2="257.32" gradientUnits="userSpaceOnUse"><stop offset="0" stop-color="#d3452f"/><stop offset="1" stop-color="#e7a337"/></linearGradient><linearGradient id="linear-gradient-6" x1="251.67" y1="182.66" x2="251.67" y2="330.4" gradientTransform="translate(443.09 -51.05) rotate(80.55)" xlink:href="#linear-gradient"/><linearGradient id="linear-gradient-7" x1="251.67" y1="189.13" x2="251.67" y2="318.93" gradientTransform="translate(443.23 -50.96) rotate(80.58)" gradientUnits="userSpaceOnUse"><stop offset="0" stop-color="#fff"/><stop offset="0.2" stop-color="#f8f9fa"/><stop offset="0.49" stop-color="#e6e8ea"/><stop offset="0.83" stop-color="#c8cbd1"/><stop offset="1" stop-color="#b6bbc3"/></linearGradient><linearGradient id="linear-gradient-8" x1="251.67" y1="288.75" x2="251.67" y2="102.43" gradientTransform="translate(240.53 -108.86) rotate(45)" xlink:href="#linear-gradient-7"/></defs><g class="cls-1"><g id="BACKGROUND"><rect class="cls-2" width="500" height="500"/><rect class="cls-2" width="500" height="500"/></g><g id="OBJECTS"><circle class="cls-3" cx="251.67" cy="235.92" r="59.72" transform="translate(-93.11 247.06) rotate(-45)"/><path class="cls-4" d="M67,208.21,191.32,227a62.91,62.91,0,0,1,25.37-41.58L143.06,83.51A188.56,188.56,0,0,0,67,208.21Z"/><path class="cls-5" d="M191.94,235.92a59.88,59.88,0,0,1,.67-8.93l-118-17.83L60.47,207a195.34,195.34,0,0,0-2.15,28.9,193.14,193.14,0,0,0,84.21,159.61l8.08-11.82L218,285.22A59.64,59.64,0,0,1,191.94,235.92Z"/><path class="cls-6" d="M395,365.68l-10.62-9.61L295.94,276a59.72,59.72,0,0,1-78,9.22l-67.35,98.49-8.08,11.82-9.76,14.27a210.64,210.64,0,0,0,275-32.52Z"/><path class="cls-7" d="M251.67,25.28A209.65,209.65,0,0,0,128.29,65.2l10.13,14,8.38,11.61,69.89,96.7a59.73,59.73,0,0,1,88.85,22.6l107.63-51.55,12.91-6.19,15.6-7.47A210.67,210.67,0,0,0,251.67,25.28Z"/><path class="cls-8" d="M311.39,235.92A59.5,59.5,0,0,1,295.94,276l88.45,80.07a179.17,179.17,0,0,0,28.78-197.5L305.54,210.12A59.44,59.44,0,0,1,311.39,235.92Z"/><circle class="cls-9" cx="251.67" cy="235.92" r="76.86" transform="translate(-22.35 445.46) rotate(-80.55)"/><circle class="cls-10" cx="251.67" cy="235.92" r="67.53" transform="translate(-22.25 445.6) rotate(-80.58)"/><circle class="cls-11" cx="251.67" cy="235.92" r="58.52" transform="translate(-93.11 247.06) rotate(-45)"/><path class="cls-2" d="M173.88,279.88a13,13,0,0,0-11,18.86,25.47,25.47,0,0,1,2.76,11.46v1.91a4.39,4.39,0,0,0,4.38,4.38h8.89a4.39,4.39,0,0,0,4.38-4.38V310.2a26.91,26.91,0,0,1,2.88-11.7,12.8,12.8,0,0,0,1.29-5.64A13,13,0,0,0,173.88,279.88Zm-5.47,25.58H180.6q-.19,1.11-.3,2.22H168.69C168.63,306.94,168.54,306.19,168.41,305.46Zm10.53,7.87h-8.89a1.23,1.23,0,0,1-1.23-1.22v-1.28h11.35v1.28A1.23,1.23,0,0,1,178.94,313.33Zm4.42-16.2a33.72,33.72,0,0,0-2,5.17H167.68a29.2,29.2,0,0,0-2-5,9.81,9.81,0,0,1-1.07-4.68A10,10,0,0,1,174,283h.46a9.86,9.86,0,0,1,9.85,9.85A9.72,9.72,0,0,1,183.36,297.13Z"/><path class="cls-2" d="M176.27,200.14l-.07-1.44-2.28-.45a12.23,12.23,0,0,0-1-3.1l1.59-1.71-.7-1.06c-.22-.32-.46-.66-.76-1l-.79-1-2.11,1a12.57,12.57,0,0,0-2.63-1.92l.27-2.31-1.19-.44c-.4-.15-.81-.28-1.22-.4l-1.22-.33L163,188a11.86,11.86,0,0,0-3.26,0l-1.13-2-1.22.33c-.41.12-.82.25-1.22.4l-1.19.44.27,2.31a12.57,12.57,0,0,0-2.63,1.92l-2.12-1-.78,1a12.75,12.75,0,0,0-.76,1l-.7,1.06,1.58,1.71a12.64,12.64,0,0,0-1,3.1l-2.27.45-.07,1.44c0,.16,0,.32,0,.48s0,.31,0,.46l.06,1.44,2.28.45a12.43,12.43,0,0,0,1,3.09l-1.59,1.73.7,1.06q.36.53.75,1l.79,1,2.13-1a12.94,12.94,0,0,0,2.63,1.92l-.27,2.32,1.18.44a12.38,12.38,0,0,0,1.22.4l1.22.34,1.14-2a12.7,12.7,0,0,0,3.26,0l1.14,2,1.22-.34a12.38,12.38,0,0,0,1.22-.4l1.18-.44-.27-2.32a12.94,12.94,0,0,0,2.63-1.92l2.13,1,.79-1q.39-.5.75-1l.7-1.06-1.6-1.73a12,12,0,0,0,1-3.09l2.29-.45.06-1.44c0-.15,0-.31,0-.46S176.28,200.3,176.27,200.14Zm-8.74,1a6.1,6.1,0,0,1-.85,2.6l-.29.48-.36.41a6.3,6.3,0,0,1-2.22,1.62l-.48.21-.57.13a6,6,0,0,1-2.74,0l-.57-.13-.49-.21a6.27,6.27,0,0,1-2.21-1.62l-.36-.41-.29-.48a6.1,6.1,0,0,1-.85-2.6l-.05-.56.05-.56a6.1,6.1,0,0,1,.85-2.6l.29-.48.36-.42a6.24,6.24,0,0,1,2.21-1.61l.49-.21.57-.13a6,6,0,0,1,2.74,0l.57.13.48.21a6.27,6.27,0,0,1,2.22,1.61l.36.42.29.48a6.1,6.1,0,0,1,.85,2.6l.05.56Z"/><path class="cls-2" d="M395.63,208a6.43,6.43,0,0,0-7.6-4.08,5.53,5.53,0,0,0-1.56.73,3.4,3.4,0,0,0-3.33-2.73h-17.5a3.39,3.39,0,0,0-3.33,2.74,5.42,5.42,0,0,0-1.56-.74,6.21,6.21,0,0,0-3.8,11.82,10.8,10.8,0,0,0,3.51.5h.28a6.83,6.83,0,0,1,2.83.52,1.77,1.77,0,0,1,1.06,1.52.79.79,0,0,1-.41.53.35.35,0,0,1-.27,0,1.24,1.24,0,0,0-1.17,2.18,2.63,2.63,0,0,0,1.23.3,2.84,2.84,0,0,0,1.36-.35,3.3,3.3,0,0,0,1.32-1.3,25.67,25.67,0,0,0,2.42,2.74,2.09,2.09,0,0,1,.63,1.49v1.31a2.09,2.09,0,0,1-1.47,2,10.52,10.52,0,0,0-6.09,5.32l-.44.9a2.49,2.49,0,0,0,2.24,3.58h20.81a2.48,2.48,0,0,0,2.24-3.58l-.44-.9a10.48,10.48,0,0,0-6.12-5.33,2.07,2.07,0,0,1-1.43-2V224a2,2,0,0,1,.64-1.5,20.42,20.42,0,0,0,2.46-2.64,3.22,3.22,0,0,0,1.27,1.21,2.81,2.81,0,0,0,1.36.35,2.62,2.62,0,0,0,1.22-.3,1.24,1.24,0,1,0-1.17-2.18.34.34,0,0,1-.26,0,.76.76,0,0,1-.41-.53,1.75,1.75,0,0,1,1.06-1.52,6.83,6.83,0,0,1,2.83-.52h.27a10.82,10.82,0,0,0,3.52-.5A6.42,6.42,0,0,0,395.63,208Zm-34.81,5.79h-.28a8.81,8.81,0,0,1-2.75-.36,3.75,3.75,0,0,1,2.29-7.13A2.26,2.26,0,0,1,361.8,208a1.08,1.08,0,0,1-.44.85.56.56,0,0,1-.45.13,1.22,1.22,0,0,0-1.59.71,1.23,1.23,0,0,0,.72,1.59,2.84,2.84,0,0,0,2.55-.31,18.51,18.51,0,0,0,.93,3.2A11.34,11.34,0,0,0,360.82,213.81Zm18.91,15.79a7.93,7.93,0,0,1,4.64,4.05l.44.94h0l-20.83,0,.44-.9a8,8,0,0,1,4.68-4.07,4.53,4.53,0,0,0,1.34-.71h7.94A4.74,4.74,0,0,0,379.73,229.6ZM372,222.8h4.69a4.49,4.49,0,0,0-.16,1.15v1.31a4.36,4.36,0,0,0,.16,1.14h-4.68a4.82,4.82,0,0,0,.16-1.14V224A4.51,4.51,0,0,0,372,222.8Zm6.27-2.46h-7.83c-2.72-2.74-5.77-7.09-5.77-12.78v-2.22a.92.92,0,0,1,.93-.93h17.5a.93.93,0,0,1,.93.93v1.89A17.83,17.83,0,0,1,378.31,220.34Zm12.68-6.9a8.87,8.87,0,0,1-2.76.36H388a11.45,11.45,0,0,0-2.66.33,19.66,19.66,0,0,0,.87-3.2,2.86,2.86,0,0,0,2.57.32,1.23,1.23,0,0,0,.72-1.59,1.22,1.22,0,0,0-1.59-.71.54.54,0,0,1-.45-.13A1.08,1.08,0,0,1,387,208a2.24,2.24,0,0,1,1.72-1.67,3.75,3.75,0,0,1,2.29,7.13Z"/><path class="cls-2" d="M315.33,77a17.2,17.2,0,1,0,17.19,17.19A17.22,17.22,0,0,0,315.33,77ZM329,90a23,23,0,0,0-6.09-1.8,22.34,22.34,0,0,0-2.39-7.36A14.38,14.38,0,0,1,329,90Zm-13.7-10.16c1.59,0,3.65,2.93,4.64,8-1.53-.15-3.1-.22-4.64-.22s-3.12.07-4.65.22C311.67,82.81,313.73,79.88,315.33,79.88Zm-5.23,1a22.34,22.34,0,0,0-2.39,7.36,23,23,0,0,0-6.09,1.8A14.38,14.38,0,0,1,310.1,80.88ZM301,94.21c0-.73,2.15-2.13,6.35-3-.07,1-.12,2-.12,3s0,2,.12,3C303.15,96.34,301,95,301,94.21Zm.62,4.18a23.34,23.34,0,0,0,6.09,1.8,22.2,22.2,0,0,0,2.39,7.35A14.37,14.37,0,0,1,301.62,98.39Zm13.71,10.15c-1.6,0-3.65-2.92-4.65-8,1.53.15,3.1.22,4.65.22s3.11-.07,4.64-.22C319,105.62,316.92,108.54,315.33,108.54Zm0-10.6a45.25,45.25,0,0,1-5.07-.28c-.1-1.08-.16-2.23-.16-3.45s.06-2.36.16-3.44a46,46,0,0,1,10.13,0,35,35,0,0,1,0,6.89A45.06,45.06,0,0,1,315.33,97.94Zm5.22,9.6a22.2,22.2,0,0,0,2.39-7.35,23.34,23.34,0,0,0,6.09-1.8A14.37,14.37,0,0,1,320.55,107.54ZM323.3,97.2c.07-1,.12-2,.12-3s-.05-2-.12-3c4.2.85,6.36,2.25,6.36,3S327.5,96.34,323.3,97.2Z"/><text class="cls-12" transform="translate(298.58 136.96)">30%</text><text class="cls-12" transform="translate(359.4 316.88)">20%</text><path class="cls-2" d="M302.62,334.2a1.44,1.44,0,1,0,2,2l7.49-7.49,6.8-3.27V322.6h-2.69v-2.69h-2.88l-3.27,6.8Z"/><path class="cls-2" d="M318,329.57a17.37,17.37,0,0,0-1.2-2.26l-2.63,1.26a13.53,13.53,0,0,1,1.18,2.15,13.9,13.9,0,1,1-5.08-6.06l1.26-2.61a16.72,16.72,0,1,0,6.47,7.52Z"/><path class="cls-2" d="M306.35,329.45l2.1-2.1a10.77,10.77,0,0,0-1.23-.7,10.64,10.64,0,1,0,4.85,4.72h0c-.17-.33-.36-.65-.56-1l-2.1,2.1.1.18,1.28-.66-1.28.66a7.66,7.66,0,0,1,.86,3.55,7.75,7.75,0,1,1-4.4-7Z"/><path class="cls-2" d="M301.54,334.74a2.06,2.06,0,0,1,.57-1.05l2-2a4.63,4.63,0,0,0-1.45-.23l-.51,0h0a4.73,4.73,0,1,0,5.25,4.71,4.63,4.63,0,0,0-.23-1.45l-2,2a2.17,2.17,0,0,1-1.06.58,1.82,1.82,0,0,1-1.49.76,1.85,1.85,0,0,1-1.08-3.35Z"/><text class="cls-12" transform="translate(221.2 341.91)">25%</text><text class="cls-12" transform="translate(107.7 312.63)">20%</text><text class="cls-12" transform="translate(100.97 203.76)">5%</text><text class="cls-13" transform="translate(227.3 233.38)">PIE</text><text class="cls-14" transform="translate(200.11 248.12)">INFOG<tspan class="cls-15" x="38.42" y="0">R</tspan><tspan x="46.09" y="0">APHIC</tspan></text></g></g></svg>